<?xml version="1.0" encoding="UTF-8"?>
<svg width="65px" height="13px" viewBox="0 0 65 13" version="1.1" xmlns="http://www.w3.org/2000/svg" xmlns:xlink="http://www.w3.org/1999/xlink">
    <!-- Generator: Sketch 44.1 (41455) - http://www.bohemiancoding.com/sketch -->
    <title>PICNIC</title>
    <desc>Created with Sketch.</desc>
    <defs></defs>
    <g id="Account-management-0.2" stroke="none" stroke-width="1" fill="none" fill-rule="evenodd">
        <path d="M4.81959537,7.55970238 L2.68849314,7.55970238 L2.68849314,10.8112003 C2.68849314,11.2760754 2.57880515,11.6286439 2.35942588,11.8689164 C2.14004662,12.109189 1.86321503,12.2293234 1.52892281,12.2293234 C1.17896065,12.2293234 0.896905821,12.1104948 0.682749869,11.8728339 C0.468593918,11.635173 0.361517549,11.2865219 0.361517549,10.8268701 L0.361517549,1.97339397 C0.361517549,1.46150902 0.479040393,1.09588239 0.714089608,0.876503122 C0.949138823,0.657123855 1.32260031,0.547435866 1.83448526,0.547435866 L4.81959537,0.547435866 C5.70233575,0.547435866 6.38135663,0.615337954 6.85667837,0.751144167 C7.3267768,0.881727064 7.73288352,1.09849142 8.07501071,1.40144374 C8.4171379,1.70439606 8.67699397,2.07524593 8.85458671,2.51400446 C9.03217945,2.952763 9.12097449,3.44635895 9.12097449,3.99480711 C9.12097449,5.16482987 8.7605711,6.05147444 8.03975351,6.65476743 C7.31893592,7.25806041 6.2455606,7.55970238 4.81959537,7.55970238 Z M4.25548007,2.29462629 L2.68849314,2.29462629 L2.68849314,5.80467702 L4.25548007,5.80467702 C4.80392824,5.80467702 5.26226733,5.7472214 5.6305111,5.63230846 C5.99875487,5.51739551 6.27950389,5.32935895 6.47276658,5.06819316 C6.66602926,4.80702737 6.76265916,4.46490531 6.76265916,4.04181672 C6.76265916,3.53515508 6.61379689,3.12251931 6.31606788,2.80389705 C5.98177567,2.46438151 5.29491993,2.29462629 4.25548007,2.29462629 Z M13.0377256,10.8112003 L13.0377256,1.76185074 C13.0377256,1.29175231 13.144802,0.939183774 13.3589579,0.704134559 C13.5731139,0.469085345 13.8499454,0.3515625 14.189461,0.3515625 C14.5394231,0.3515625 14.8227838,0.467779535 15.0395514,0.700217092 C15.256319,0.932654649 15.3647012,1.28652899 15.3647012,1.76185074 L15.3647012,10.8112003 C15.3647012,11.286522 15.256319,11.6417022 15.0395514,11.8767514 C14.8227838,12.1118006 14.5394231,12.2293234 14.189461,12.2293234 C13.8551688,12.2293234 13.579643,12.1104948 13.3628754,11.8728339 C13.1461078,11.635173 13.0377256,11.2812987 13.0377256,10.8112003 Z M29.6314009,8.40587532 C29.6314009,8.77150743 29.5413001,9.16716768 29.3610957,9.59286792 C29.1808913,10.0185682 28.8975307,10.4364272 28.5110053,10.8464575 C28.1244799,11.2564878 27.630884,11.5894692 27.0302026,11.8454116 C26.4295213,12.1013541 25.7296075,12.2293234 24.9304401,12.2293234 C24.3245355,12.2293234 23.7734839,12.1718678 23.2772689,12.0569549 C22.7810539,11.9420419 22.3305497,11.763146 21.9257427,11.5202618 C21.5209357,11.2773777 21.1487801,10.9574544 20.8092645,10.5604824 C20.5063122,10.2000736 20.2477619,9.79657846 20.033606,9.34998495 C19.81945,8.90339144 19.6588355,8.42677101 19.5517575,7.92010937 C19.4446795,7.41344773 19.3911413,6.87545427 19.3911413,6.30611284 C19.3911413,5.38158592 19.5256397,4.55370277 19.7946405,3.82243855 C20.0636413,3.09117433 20.448855,2.46569163 20.9502933,1.9459717 C21.4517317,1.42625177 22.0393459,1.03059153 22.7131536,0.758979102 C23.3869614,0.487366676 24.1051566,0.3515625 24.8677607,0.3515625 C25.7975109,0.3515625 26.625394,0.536987432 27.351435,0.90784286 C28.0774759,1.27869829 28.6337507,1.73703738 29.020276,2.28287389 C29.4068014,2.8287104 29.6000612,3.34450511 29.6000612,3.83027349 C29.6000612,4.0966626 29.5060429,4.33170828 29.3180036,4.5354176 C29.1299642,4.73912692 28.9027533,4.84098006 28.6363642,4.84098006 C28.3386352,4.84098006 28.1153418,4.77046635 27.9664773,4.62943682 C27.8176128,4.48840729 27.651775,4.24552675 27.468959,3.9007879 C27.1660067,3.33144647 26.8095207,2.90575261 26.3994904,2.62369355 C25.9894601,2.34163449 25.4841119,2.20060708 24.8834305,2.20060708 C23.9275637,2.20060708 23.1662769,2.56362209 22.5995471,3.28966299 C22.0328173,4.0157039 21.7494567,5.04729332 21.7494567,6.38446218 C21.7494567,7.2776492 21.8748144,8.02065474 22.1255335,8.61350109 C22.3762527,9.20634744 22.7314329,9.64901682 23.1910847,9.94152251 C23.6507365,10.2340282 24.1887299,10.3802789 24.8050812,10.3802789 C25.4736656,10.3802789 26.0390811,10.2144411 26.5013445,9.8827605 C26.963608,9.55107994 27.3122591,9.06401304 27.5473083,8.42154519 C27.6465513,8.11859287 27.7692974,7.8717949 27.9155503,7.68114387 C28.0618031,7.49049284 28.2968488,7.39516875 28.6206944,7.39516875 C28.8975301,7.39516875 29.1351874,7.49179865 29.3336734,7.68506133 C29.5321594,7.87832402 29.6314009,8.11859295 29.6314009,8.40587532 Z M36.6351163,1.74618087 L41.108864,8.51556441 L41.108864,1.68350139 C41.108864,1.23951954 41.2041881,0.906538148 41.3948391,0.684547223 C41.5854901,0.462556298 41.8427346,0.3515625 42.1665801,0.3515625 C42.5008724,0.3515625 42.7646459,0.462556298 42.9579085,0.684547223 C43.1511712,0.906538148 43.2478011,1.23951954 43.2478011,1.68350139 L43.2478011,10.717181 C43.2478011,11.725281 42.8299421,12.2293234 41.9942116,12.2293234 C41.785279,12.2293234 41.5972424,12.1992898 41.4300963,12.1392217 C41.2629502,12.0791536 41.1062531,11.9838295 40.9600002,11.8532466 C40.8137474,11.7226637 40.6779432,11.569884 40.5525836,11.3949029 C40.427224,11.2199218 40.3018663,11.0410259 40.1765067,10.8582099 L35.8124481,4.16717568 L35.8124481,10.8973845 C35.8124481,11.3361431 35.710595,11.6678187 35.5068857,11.8924212 C35.3031764,12.1170238 35.0420145,12.2293234 34.7233922,12.2293234 C34.3943233,12.2293234 34.1305498,12.115718 33.9320638,11.8885038 C33.7335778,11.6612895 33.6343363,11.3309198 33.6343363,10.8973845 L33.6343363,2.03607345 C33.6343363,1.65999471 33.6761222,1.36488179 33.7596953,1.15072583 C33.8589383,0.91567662 34.0234703,0.72372264 34.2532962,0.574858138 C34.483122,0.425993635 34.7312258,0.3515625 34.9976149,0.3515625 C35.2065476,0.3515625 35.3854435,0.385513544 35.534308,0.45341665 C35.6831725,0.521319757 35.8137534,0.612726414 35.9260547,0.727639363 C36.038356,0.842552313 36.1532672,0.991414582 36.2707918,1.17423064 C36.3883164,1.35704669 36.5097567,1.54769486 36.6351163,1.74618087 Z M47.7678422,10.8112003 L47.7678422,1.76185074 C47.7678422,1.29175231 47.8749186,0.939183774 48.0890745,0.704134559 C48.3032305,0.469085345 48.5800621,0.3515625 48.9195776,0.3515625 C49.2695397,0.3515625 49.5529004,0.467779535 49.769668,0.700217092 C49.9864356,0.932654649 50.0948178,1.28652899 50.0948178,1.76185074 L50.0948178,10.8112003 C50.0948178,11.286522 49.9864356,11.6417022 49.769668,11.8767514 C49.5529004,12.1118006 49.2695397,12.2293234 48.9195776,12.2293234 C48.5852854,12.2293234 48.3097596,12.1104948 48.092992,11.8728339 C47.8762244,11.635173 47.7678422,11.2812987 47.7678422,10.8112003 Z M64.3615175,8.40587532 C64.3615175,8.77150743 64.2714167,9.16716768 64.0912123,9.59286792 C63.9110079,10.0185682 63.6276473,10.4364272 63.2411219,10.8464575 C62.8545965,11.2564878 62.3610006,11.5894692 61.7603192,11.8454116 C61.1596379,12.1013541 60.4597241,12.2293234 59.6605568,12.2293234 C59.0546521,12.2293234 58.5036006,12.1718678 58.0073855,12.0569549 C57.5111705,11.9420419 57.0606663,11.763146 56.6558593,11.5202618 C56.2510523,11.2773777 55.8788967,10.9574544 55.5393811,10.5604824 C55.2364288,10.2000736 54.9778786,9.79657846 54.7637226,9.34998495 C54.5495666,8.90339144 54.3889521,8.42677101 54.2818741,7.92010937 C54.1747961,7.41344773 54.121258,6.87545427 54.121258,6.30611284 C54.121258,5.38158592 54.2557563,4.55370277 54.5247571,3.82243855 C54.7937579,3.09117433 55.1789716,2.46569163 55.68041,1.9459717 C56.1818483,1.42625177 56.7694625,1.03059153 57.4432703,0.758979102 C58.117078,0.487366676 58.8352732,0.3515625 59.5978773,0.3515625 C60.5276275,0.3515625 61.3555107,0.536987432 62.0815516,0.90784286 C62.8075925,1.27869829 63.3638673,1.73703738 63.7503926,2.28287389 C64.136918,2.8287104 64.3301778,3.34450511 64.3301778,3.83027349 C64.3301778,4.0966626 64.2361595,4.33170828 64.0481202,4.5354176 C63.8600808,4.73912692 63.63287,4.84098006 63.3664808,4.84098006 C63.0687518,4.84098006 62.8454584,4.77046635 62.6965939,4.62943682 C62.5477294,4.48840729 62.3818916,4.24552675 62.1990756,3.9007879 C61.8961233,3.33144647 61.5396373,2.90575261 61.129607,2.62369355 C60.7195767,2.34163449 60.2142285,2.20060708 59.6135471,2.20060708 C58.6576803,2.20060708 57.8963935,2.56362209 57.3296637,3.28966299 C56.7629339,4.0157039 56.4795733,5.04729332 56.4795733,6.38446218 C56.4795733,7.2776492 56.604931,8.02065474 56.8556502,8.61350109 C57.1063693,9.20634744 57.4615495,9.64901682 57.9212013,9.94152251 C58.3808531,10.2340282 58.9188465,10.3802789 59.5351978,10.3802789 C60.2037822,10.3802789 60.7691977,10.2144411 61.2314612,9.8827605 C61.6937246,9.55107994 62.0423757,9.06401304 62.2774249,8.42154519 C62.3766679,8.11859287 62.499414,7.8717949 62.6456669,7.68114387 C62.7919197,7.49049284 63.0269654,7.39516875 63.350811,7.39516875 C63.6276467,7.39516875 63.865304,7.49179865 64.06379,7.68506133 C64.262276,7.87832402 64.3615175,8.11859295 64.3615175,8.40587532 Z" id="PICNIC" fill="#FFFFFF"></path>
    </g>
</svg>