<?xml version="1.0" encoding="UTF-8"?>
<svg width="92px" height="38px" viewBox="0 0 92 38" version="1.1" xmlns="http://www.w3.org/2000/svg" xmlns:xlink="http://www.w3.org/1999/xlink">
    <!-- Generator: Sketch 45.1 (43504) - http://www.bohemiancoding.com/sketch -->
    <title>Group 18</title>
    <desc>Created with Sketch.</desc>
    <defs>
        <polygon id="path-1" points="0 0 10.7191558 0 10.7191558 16.9063385 1.31396848e-14 16.9063385 1.31396848e-14 0"></polygon>
    </defs>
    <g id="Marketing-site" stroke="none" stroke-width="1" fill="none" fill-rule="evenodd">
        <g id="Group-18">
            <g id="Page-1" transform="translate(0.000000, 21.000000)">
                <polygon id="Fill-1" fill="#F5FAFA" points="80 11.4423077 91.2776281 11.4423077 91.2776281 10 80 10"></polygon>
                <polygon id="Fill-2" fill="#F5FAFA" points="0 0 0 3.41861538 3.33049246 3.41861538 3.33049246 16.3915385 7.24765829 16.3915385 7.24765829 3.41861538 10.5786131 3.41861538 10.5786131 0"></polygon>
                <polygon id="Fill-3" fill="#F5FAFA" points="19.2712362 16.3915385 19.2712362 9.53030769 15.9638593 9.53030769 15.9638593 16.3915385 12 16.3915385 12 0 15.9638593 0 15.9638593 6.11169231 19.2712362 6.11169231 19.2712362 0 23.2350955 0 23.2350955 16.3915385"></polygon>
                <g id="Group-17" transform="translate(25.427136, 0.087323)">
                    <path d="M7.71690452,8.47661538 C7.71690452,7.48892308 7.67760804,6.66553846 7.59947739,6.00692308 C7.52134673,5.34830769 7.4039196,4.82307692 7.24765829,4.43076923 C7.09139698,4.03846154 6.8958392,3.76015385 6.66144724,3.59538462 C6.42659296,3.43061538 6.16076382,3.34846154 5.8639598,3.34846154 C5.55097487,3.34846154 5.28144724,3.42692308 5.05491457,3.58384615 C4.8279196,3.74076923 4.6360603,4.01076923 4.47979899,4.39523077 C4.32353769,4.77923077 4.21027136,5.30123077 4.14,5.95984615 C4.06972864,6.61846154 4.03413065,7.44184615 4.03413065,8.43 C4.03413065,9.41769231 4.07342714,10.2410769 4.15155779,10.8996923 C4.22968844,11.5583077 4.34711558,12.084 4.50337688,12.4758462 C4.65963819,12.8681538 4.85149749,13.1464615 5.07803015,13.3112308 C5.30456281,13.4755385 5.57409045,13.5581538 5.88753769,13.5581538 C6.18434171,13.5581538 6.45017085,13.4796923 6.68502513,13.3227692 C6.91941709,13.1663077 7.11081407,12.8953846 7.25967839,12.5109231 C7.4080804,12.1269231 7.52134673,11.6058462 7.59947739,10.9472308 C7.67760804,10.2881538 7.71690452,9.46476923 7.71690452,8.47661538 M11.7514975,8.43 C11.7514975,9.88153846 11.6183518,11.1383077 11.3525226,12.1998462 C11.0866935,13.2618462 10.6992764,14.1396923 10.1916583,14.8343077 C9.68311558,15.5289231 9.06130653,16.0481538 8.32669347,16.3915385 C7.59161809,16.7344615 6.76269347,16.9066154 5.84038191,16.9066154 C3.99529648,16.9066154 2.56028141,16.2235385 1.53626131,14.8578462 C0.511778894,13.4916923 0,11.3649231 0,8.47661538 C0,5.58876923 0.519638191,3.45369231 1.5598392,2.07230769 C2.59957789,0.690461538 4.04198995,0 5.88753769,0 C7.7321608,0 9.17087437,0.686769231 10.2032161,2.06030769 C11.2350955,3.43430769 11.7514975,5.55738462 11.7514975,8.43" id="Fill-4" fill="#F5FAFA"></path>
                    <path d="M23.5698492,16.3915385 L23.5698492,12.762 C23.5698492,11.8721538 23.5777085,11.0330769 23.5934271,10.2447692 C23.6086834,9.45646154 23.6322613,8.71107692 23.6636985,8.00861538 C23.5698492,8.33630769 23.4644422,8.69907692 23.3470151,9.09738462 C23.2295879,9.49523077 23.100603,9.90923077 22.9600603,10.3384615 C22.8190553,10.7676923 22.6743518,11.1932308 22.5259497,11.6146154 C22.3770854,12.036 22.2407035,12.4343077 22.1158794,12.8086154 L20.567598,16.9066154 L19.0193166,12.8086154 C18.8940302,12.45 18.7576482,12.0558462 18.6092462,11.6261538 C18.4603819,11.1969231 18.3156784,10.7676923 18.1751357,10.3384615 C18.0341307,9.90923077 17.9051457,9.49523077 17.7881809,9.09738462 C17.6707538,8.69907692 17.5653467,8.33630769 17.4714975,8.00861538 C17.5024724,8.69538462 17.5260503,9.43661538 17.5417688,10.2327692 C17.5570251,11.0293846 17.5653467,11.8721538 17.5653467,12.762 L17.5653467,16.3915385 L14,16.3915385 L14,0 L17.5653467,0 L19.0193166,4.02738462 C19.378995,5.01092308 19.6998392,5.952 19.9809246,6.84923077 C20.2624724,7.74738462 20.4580302,8.48492308 20.567598,9.06230769 C20.6924221,8.48492308 20.8958392,7.75107692 21.1773869,6.86076923 C21.4589347,5.97138462 21.7793166,5.01923077 22.138995,4.00430769 L23.5698492,0 L27.1116181,0 L27.1116181,16.3915385 L23.5698492,16.3915385 Z" id="Fill-6" fill="#F5FAFA"></path>
                    <path d="M36.1071156,9.624 C35.9194171,8.54676923 35.7437387,7.55953846 35.5796181,6.66184615 C35.4154975,5.76415385 35.2939095,4.94076923 35.2157789,4.19123077 C35.1371859,4.94076923 35.0243819,5.76415385 34.8759799,6.66184615 C34.7271156,7.55953846 34.5509749,8.55507692 34.3480201,9.64753846 L34.2541709,10.1626154 L36.2009648,10.1626154 L36.1071156,9.624 Z M37.4676985,16.3915385 L36.8579095,13.3472308 L33.620804,13.3472308 L33.034593,16.3915385 L29,16.3915385 L33.245407,0 L37.28,0 L41.5018291,16.3915385 L37.4676985,16.3915385 Z" id="Fill-8" fill="#F5FAFA"></path>
                    <g id="Group-12" transform="translate(41.608040, 0.000000)">
                        <mask id="mask-2" fill="white">
                            <use xlink:href="#path-1"></use>
                        </mask>
                        <g id="Clip-11"></g>
                        <path d="M10.7191558,12.0830769 C10.7191558,12.8478462 10.5860101,13.5309231 10.3201809,14.1318462 C10.0543518,14.7332308 9.68311558,15.2367692 9.20647236,15.6424615 C8.72890452,16.0486154 8.16627136,16.3606154 7.51764824,16.5789231 C6.86856281,16.7972308 6.16076382,16.9066154 5.39471357,16.9066154 C4.75348744,16.9066154 4.17513568,16.8443077 3.65873367,16.7196923 C3.14325628,16.5946154 2.66984925,16.4072308 2.2398995,16.1575385 C1.80948744,15.9078462 1.41513568,15.6069231 1.05545729,15.2556923 C0.695316583,14.9049231 0.343497487,14.5029231 0,14.0501538 L2.67401005,11.6381538 C3.22092462,12.294 3.72114573,12.7896923 4.17513568,13.1252308 C4.62820101,13.4607692 5.05815075,13.6283077 5.46498492,13.6283077 C5.8718191,13.6283077 6.20745729,13.5230769 6.47374874,13.3121538 C6.73957789,13.1016923 6.87226131,12.7703077 6.87226131,12.3170769 C6.87226131,12.0830769 6.84914573,11.8721538 6.80198995,11.6847692 C6.75529648,11.4978462 6.65728643,11.3141538 6.50888442,11.1346154 C6.3600201,10.9555385 6.14874372,10.7755385 5.87551759,10.596 C5.60182915,10.4169231 5.23059296,10.2253846 4.76134673,10.0223077 C3.9481407,9.66369231 3.2560603,9.30830769 2.68556784,8.95707692 C2.11461307,8.60584615 1.65368844,8.22738462 1.30186935,7.82123077 C0.94958794,7.41553846 0.695316583,6.96646154 0.539517588,6.47492308 C0.38279397,5.98292308 0.304663317,5.41753846 0.304663317,4.77692308 C0.304663317,4.10630769 0.422090452,3.48138462 0.656944724,2.904 C0.891336683,2.32615385 1.22743719,1.82307692 1.66524623,1.39338462 C2.10305528,0.964153846 2.63887437,0.624923077 3.27224121,0.374769231 C3.90514573,0.125076923 4.61248241,0 5.39471357,0 C6.01975879,0 6.57915578,0.0549230769 7.0719799,0.164307692 C7.56434171,0.273692308 8.01001005,0.441230769 8.40898492,0.667384615 C8.80749749,0.894 9.17873367,1.16723077 9.52269347,1.48707692 C9.86665327,1.80738462 10.2106131,2.178 10.5550352,2.59938462 L7.83433166,5.03446154 C7.55278392,4.70676923 7.31007035,4.42984615 7.10711558,4.20323077 C6.90369849,3.97753846 6.7081407,3.79384615 6.52044221,3.65307692 C6.33320603,3.51276923 6.14134673,3.41538462 5.94578894,3.36046154 C5.75023116,3.306 5.52739698,3.27830769 5.27728643,3.27830769 C4.90235176,3.27830769 4.61248241,3.39553846 4.40952764,3.62953846 C4.20611055,3.864 4.10440201,4.13723077 4.10440201,4.44923077 C4.10440201,4.668 4.1358392,4.86323077 4.19825126,5.03446154 C4.26066332,5.20661538 4.37023116,5.37415385 4.52695477,5.538 C4.68321608,5.70184615 4.89403015,5.86246154 5.16032161,6.018 C5.42568844,6.17446154 5.77011055,6.34615385 6.19220101,6.53353846 C7.02066332,6.89261538 7.72060302,7.25584615 8.29155779,7.62230769 C8.86205025,7.98923077 9.32713568,8.39123077 9.68727638,8.82830769 C10.0464925,9.26538462 10.3086231,9.74538462 10.4727437,10.2683077 C10.6368643,10.7912308 10.7191558,11.3963077 10.7191558,12.0830769" id="Fill-10" fill="#F5FAFA" mask="url(#mask-2)"></path>
                    </g>
                    <path d="M59.3762211,6.06 C59.3762211,6.44353846 59.3096482,6.78646154 59.1760402,7.08784615 C59.0428945,7.38923077 58.8565829,7.64169231 58.6175678,7.84523077 C58.3780905,8.04876923 58.0956181,8.20523077 57.7706131,8.31507692 C57.4446834,8.42446154 57.0900905,8.47938462 56.7059095,8.47938462 C56.3841407,8.47938462 56.093809,8.448 55.8353769,8.38523077 C55.5764824,8.32292308 55.3393166,8.22876923 55.1234171,8.10369231 C54.9079799,7.97861538 54.7096482,7.82769231 54.5293467,7.65138462 C54.3490452,7.47507692 54.1724422,7.27384615 54,7.04676923 L55.3411658,5.83707692 C55.6157789,6.16569231 55.8663518,6.41446154 56.093809,6.58246154 C56.3212663,6.75092308 56.5371658,6.83538462 56.7410452,6.83538462 C56.9449246,6.83538462 57.1136683,6.78230769 57.2468141,6.67661538 C57.3804221,6.57092308 57.446995,6.40476923 57.446995,6.17769231 C57.446995,6.06 57.4349749,5.95430769 57.4118593,5.86015385 C57.3882814,5.76646154 57.3388141,5.67461538 57.2643819,5.58415385 C57.1899497,5.49461538 57.0840804,5.40415385 56.9467739,5.31415385 C56.8094673,5.22415385 56.6236181,5.12815385 56.3883015,5.02661538 C55.9805427,4.84661538 55.6333467,4.66846154 55.3471759,4.49215385 C55.0605427,4.31584615 54.8293869,4.12615385 54.6527839,3.92261538 C54.4766432,3.71907692 54.3490452,3.49384615 54.2704523,3.24738462 C54.1923216,3.00046154 54.1530251,2.71707692 54.1530251,2.39584615 C54.1530251,2.05938462 54.2117387,1.746 54.3296281,1.45615385 C54.4470553,1.16676923 54.615799,0.914307692 54.835397,0.698769231 C55.054995,0.483692308 55.323598,0.313384615 55.641206,0.187846154 C55.9588141,0.0627692308 56.313407,0 56.7059095,0 C57.0193568,0 57.2999799,0.0272307692 57.5468543,0.0821538462 C57.794191,0.137076923 58.0174874,0.221076923 58.2176683,0.334615385 C58.4173869,0.448153846 58.6036985,0.585230769 58.7761407,0.745846154 C58.9485829,0.906461538 59.1214874,1.092 59.2939296,1.30338462 L57.9291859,2.52507692 C57.7881809,2.36030769 57.666593,2.22184615 57.5644221,2.10784615 C57.4627136,1.99476923 57.3647035,1.90246154 57.270392,1.83184615 C57.1765427,1.76169231 57.0803819,1.71276923 56.9823719,1.68507692 C56.8838995,1.65784615 56.7724824,1.644 56.647196,1.644 C56.4585729,1.644 56.313407,1.70261538 56.2116985,1.82030769 C56.1095276,1.93753846 56.0586734,2.07507692 56.0586734,2.23153846 C56.0586734,2.34092308 56.074392,2.43876923 56.1058291,2.52507692 C56.1372663,2.61138462 56.1918191,2.69538462 56.2704121,2.77753846 C56.349005,2.85969231 56.4548744,2.94 56.5880201,3.018 C56.7216281,3.09646154 56.8940704,3.18276923 57.105809,3.27646154 C57.5214271,3.45692308 57.8723216,3.63876923 58.1584925,3.82292308 C58.4446633,4.00661538 58.6781307,4.20830769 58.8584322,4.42753846 C59.0387337,4.64676923 59.1704925,4.88769231 59.2527839,5.14984615 C59.3350754,5.41246154 59.3762211,5.71569231 59.3762211,6.06" id="Fill-13" fill="#F5FAFA"></path>
                    <polygon id="Fill-15" fill="#F5FAFA" points="64.6351558 1.71461538 64.6351558 8.22092308 62.670794 8.22092308 62.670794 1.71461538 61 1.71461538 61 0 66.3054874 0 66.3054874 1.71461538"></polygon>
                </g>
            </g>
            <path d="M0.936,9 L0.936,0.996 L4.5,0.996 C5.892,0.996 6.744,1.836 6.744,3.036 C6.744,4.044 6.072,4.716 5.34,4.872 C6.192,5.004 6.9,5.88 6.9,6.84 C6.9,8.124 6.048,9 4.584,9 L0.936,9 Z M1.932,4.464 L4.332,4.464 C5.232,4.464 5.712,3.912 5.712,3.18 C5.712,2.46 5.232,1.884 4.332,1.884 L1.932,1.884 L1.932,4.464 Z M1.932,8.112 L4.38,8.112 C5.316,8.112 5.868,7.584 5.868,6.732 C5.868,6 5.364,5.352 4.38,5.352 L1.932,5.352 L1.932,8.112 Z M9.984,5.892 C9.984,7.86 11.076,9.144 13.248,9.144 C15.42,9.144 16.512,7.872 16.512,5.88 L16.512,0.996 L15.516,0.996 L15.516,5.868 C15.516,7.332 14.724,8.256 13.248,8.256 C11.772,8.256 10.98,7.332 10.98,5.868 L10.98,0.996 L9.984,0.996 L9.984,5.892 Z M19.884,9 L20.88,9 L20.88,0.996 L19.884,0.996 L19.884,9 Z M24.252,9 L28.968,9 L28.968,8.112 L25.248,8.112 L25.248,0.996 L24.252,0.996 L24.252,9 Z M32.652,9 L33.648,9 L33.648,1.884 L36.192,1.884 L36.192,0.996 L30.12,0.996 L30.12,1.884 L32.652,1.884 L32.652,9 Z M43.608,9 L43.608,0.996 L47.172,0.996 C48.564,0.996 49.416,1.836 49.416,3.036 C49.416,4.044 48.744,4.716 48.012,4.872 C48.864,5.004 49.572,5.88 49.572,6.84 C49.572,8.124 48.72,9 47.256,9 L43.608,9 Z M44.604,4.464 L47.004,4.464 C47.904,4.464 48.384,3.912 48.384,3.18 C48.384,2.46 47.904,1.884 47.004,1.884 L44.604,1.884 L44.604,4.464 Z M44.604,8.112 L47.052,8.112 C47.988,8.112 48.54,7.584 48.54,6.732 C48.54,6 48.036,5.352 47.052,5.352 L44.604,5.352 L44.604,8.112 Z M54.984,9 L55.98,9 L55.98,5.616 L59.124,0.996 L57.96,0.996 L55.476,4.716 L52.992,0.996 L51.828,0.996 L54.984,5.616 L54.984,9 Z" id="BUILT-BY" fill="#FFFFFF"></path>
        </g>
    </g>
</svg>