<?xml version="1.0" encoding="UTF-8"?>
<svg width="155px" height="155px" viewBox="0 0 155 155" version="1.1" xmlns="http://www.w3.org/2000/svg" xmlns:xlink="http://www.w3.org/1999/xlink">
    <!-- Generator: Sketch 45.1 (43504) - http://www.bohemiancoding.com/sketch -->
    <title>Group 13</title>
    <desc>Created with Sketch.</desc>
    <defs>
        <linearGradient x1="0%" y1="78.7925089%" x2="79.7790511%" y2="0%" id="linearGradient-1">
            <stop stop-color="#57AD79" offset="0%"></stop>
            <stop stop-color="#B5C955" offset="100%"></stop>
        </linearGradient>
    </defs>
    <g id="Marketing-site" stroke="none" stroke-width="1" fill="none" fill-rule="evenodd">
        <g id="Desktop" transform="translate(-651.000000, -1069.000000)">
            <g id="Group-13" transform="translate(651.000000, 1069.000000)">
                <polygon id="Line-2" fill="url(#linearGradient-1)" fill-rule="nonzero" points="0 155 155.000271 0 97 5.25160427e-18 0 97"></polygon>
                <path d="M2.27594047,64 L3.27194047,64 L3.27194047,60.352 L7.43594047,60.352 L7.43594047,59.464 L3.27194047,59.464 L3.27194047,56.884 L7.51994047,56.884 L7.51994047,55.996 L2.27594047,55.996 L2.27594047,64 Z M15.0507975,64 L13.0107975,60.82 L11.4147975,60.82 L11.4147975,64 L10.4187975,64 L10.4187975,55.996 L13.6347975,55.996 C15.0987975,55.996 16.1427975,56.932 16.1427975,58.408 C16.1427975,59.848 15.1587975,60.64 14.0667975,60.736 L16.2267975,64 L15.0507975,64 Z M15.1107975,58.408 C15.1107975,57.508 14.4627975,56.884 13.5147975,56.884 L11.4147975,56.884 L11.4147975,59.944 L13.5147975,59.944 C14.4627975,59.944 15.1107975,59.308 15.1107975,58.408 Z M19.2576546,64 L24.5016546,64 L24.5016546,63.112 L20.2536546,63.112 L20.2536546,60.352 L24.4176546,60.352 L24.4176546,59.464 L20.2536546,59.464 L20.2536546,56.884 L24.5016546,56.884 L24.5016546,55.996 L19.2576546,55.996 L19.2576546,64 Z M27.6285116,64 L32.8725116,64 L32.8725116,63.112 L28.6245116,63.112 L28.6245116,60.352 L32.7885116,60.352 L32.7885116,59.464 L28.6245116,59.464 L28.6245116,56.884 L32.8725116,56.884 L32.8725116,55.996 L27.6285116,55.996 L27.6285116,64 Z M40.6382257,64 L40.6382257,55.996 L43.3742257,55.996 C45.8582257,55.996 47.4782257,57.736 47.4782257,60.004 C47.4782257,62.284 45.8582257,64 43.3742257,64 L40.6382257,64 Z M41.6342257,63.112 L43.3742257,63.112 C45.3182257,63.112 46.4462257,61.72 46.4462257,60.004 C46.4462257,58.276 45.3542257,56.884 43.3742257,56.884 L41.6342257,56.884 L41.6342257,63.112 Z M50.5810828,60.892 C50.5810828,62.86 51.6730828,64.144 53.8450828,64.144 C56.0170828,64.144 57.1090828,62.872 57.1090828,60.88 L57.1090828,55.996 L56.1130828,55.996 L56.1130828,60.868 C56.1130828,62.332 55.3210828,63.256 53.8450828,63.256 C52.3690828,63.256 51.5770828,62.332 51.5770828,60.868 L51.5770828,55.996 L50.5810828,55.996 L50.5810828,60.892 Z M65.1559398,64 L63.1159398,60.82 L61.5199398,60.82 L61.5199398,64 L60.5239398,64 L60.5239398,55.996 L63.7399398,55.996 C65.2039398,55.996 66.2479398,56.932 66.2479398,58.408 C66.2479398,59.848 65.2639398,60.64 64.1719398,60.736 L66.3319398,64 L65.1559398,64 Z M65.2159398,58.408 C65.2159398,57.508 64.5679398,56.884 63.6199398,56.884 L61.5199398,56.884 L61.5199398,59.944 L63.6199398,59.944 C64.5679398,59.944 65.2159398,59.308 65.2159398,58.408 Z M69.3627969,64 L70.3587969,64 L70.3587969,55.996 L69.3627969,55.996 L69.3627969,64 Z M79.4376539,64 L80.3976539,64 L80.3976539,55.996 L79.4016539,55.996 L79.4016539,62.248 L74.7936539,55.996 L73.7736539,55.996 L73.7736539,64 L74.7696539,64 L74.7696539,57.616 L79.4376539,64 Z M83.488511,60.004 C83.488511,62.488 85.324511,64.156 87.604511,64.156 C88.912511,64.156 90.004511,63.604 90.748511,62.776 L90.748511,59.884 L87.004511,59.884 L87.004511,60.772 L89.752511,60.772 L89.752511,62.404 C89.356511,62.8 88.564511,63.268 87.604511,63.268 C85.852511,63.268 84.520511,61.9 84.520511,60.004 C84.520511,58.096 85.852511,56.752 87.604511,56.752 C88.564511,56.752 89.416511,57.208 89.920511,57.856 L90.712511,57.364 C90.004511,56.488 89.020511,55.864 87.604511,55.864 C85.324511,55.864 83.488511,57.52 83.488511,60.004 Z M98.5502251,64 L98.5502251,55.996 L102.114225,55.996 C103.506225,55.996 104.358225,56.836 104.358225,58.036 C104.358225,59.044 103.686225,59.716 102.954225,59.872 C103.806225,60.004 104.514225,60.88 104.514225,61.84 C104.514225,63.124 103.662225,64 102.198225,64 L98.5502251,64 Z M99.5462251,59.464 L101.946225,59.464 C102.846225,59.464 103.326225,58.912 103.326225,58.18 C103.326225,57.46 102.846225,56.884 101.946225,56.884 L99.5462251,56.884 L99.5462251,59.464 Z M99.5462251,63.112 L101.994225,63.112 C102.930225,63.112 103.482225,62.584 103.482225,61.732 C103.482225,61 102.978225,60.352 101.994225,60.352 L99.5462251,60.352 L99.5462251,63.112 Z M107.641082,64 L112.885082,64 L112.885082,63.112 L108.637082,63.112 L108.637082,60.352 L112.801082,60.352 L112.801082,59.464 L108.637082,59.464 L108.637082,56.884 L112.885082,56.884 L112.885082,55.996 L107.641082,55.996 L107.641082,64 Z M117.991939,64 L118.987939,64 L118.987939,56.884 L121.531939,56.884 L121.531939,55.996 L115.459939,55.996 L115.459939,56.884 L117.991939,56.884 L117.991939,64 Z M129.302796,64 L128.594796,62.224 L124.610796,62.224 L123.902796,64 L122.762796,64 L125.978796,55.996 L127.214796,55.996 L130.442796,64 L129.302796,64 Z M126.602796,57.028 L124.898796,61.336 L128.294796,61.336 L126.602796,57.028 Z" id="FREE-DURING-BETA" fill="#FFFFFF" transform="translate(66.359368, 60.010000) rotate(-45.000000) translate(-66.359368, -60.010000) "></path>
            </g>
        </g>
    </g>
</svg>