<?xml version="1.0" encoding="UTF-8"?>
<svg width="14px" height="14px" viewBox="0 0 14 14" version="1.1" xmlns="http://www.w3.org/2000/svg" xmlns:xlink="http://www.w3.org/1999/xlink">
    <!-- Generator: Sketch 45.1 (43504) - http://www.bohemiancoding.com/sketch -->
    <title>Group 15</title>
    <desc>Created with Sketch.</desc>
    <defs></defs>
    <g id="Marketing-site" stroke="none" stroke-width="1" fill="none" fill-rule="evenodd">
        <g id="Desktop" transform="translate(-149.000000, -1417.000000)" fill="#FFF8B3">
            <g id="Group-15" transform="translate(149.484131, 1417.484131)">
                <path d="M6.75793457,13.3968298 C3.13313002,13.3968298 0.194645344,10.4583452 0.194645344,6.83354061 C0.194645344,3.20873607 3.13313002,0.270251387 6.75793457,0.270251387 C10.3827391,0.270251387 13.3212238,3.20873607 13.3212238,6.83354061 C13.3212238,10.4583452 10.3827391,13.3968298 6.75793457,13.3968298 Z M6.75793457,12.0452429 C9.63627828,12.0452429 11.9696369,9.71188432 11.9696369,6.83354061 C11.9696369,3.95519691 9.63627828,1.6218383 6.75793457,1.6218383 C3.87959086,1.6218383 1.54623226,3.95519691 1.54623226,6.83354061 C1.54623226,9.71188432 3.87959086,12.0452429 6.75793457,12.0452429 Z" id="Oval" fill-rule="nonzero"></path>
                <path d="M6.75793457,5.01168428 C7.21206777,5.01168428 7.57969941,4.64405264 7.57969941,4.18991943 C7.57969941,3.73578623 7.21206777,3.37896729 6.75793457,3.37896729 C6.31461406,3.37896729 5.93616973,3.73578623 5.93616973,4.18991943 C5.93616973,4.64405264 6.31461406,5.01168428 6.75793457,5.01168428 Z M6.07132842,10.2797675 L7.44454072,10.2797675 L7.44454072,5.87533182 L6.07132842,5.87533182 L6.07132842,10.2797675 Z" id="i"></path>
            </g>
        </g>
    </g>
</svg>