<?xml version="1.0" encoding="UTF-8"?>
<svg width="49px" height="62px" viewBox="0 0 49 62" version="1.1" xmlns="http://www.w3.org/2000/svg" xmlns:xlink="http://www.w3.org/1999/xlink">
    <!-- Generator: Sketch 45.1 (43504) - http://www.bohemiancoding.com/sketch -->
    <title>Page 1</title>
    <desc>Created with Sketch.</desc>
    <defs>
        <polygon id="path-1" points="48.304 0.780268036 48.304 50.99976 0.0003 50.99976 0.0003 0.780268036"></polygon>
        <polygon id="path-3" points="0.720876258 0.016 43.2072 0.016 43.2072 39.2900596 0.720876258 39.2900596"></polygon>
    </defs>
    <g id="Marketing-site" stroke="none" stroke-width="1" fill="none" fill-rule="evenodd">
        <g id="Desktop" transform="translate(-496.000000, -1141.000000)">
            <g id="Page-1" transform="translate(496.000000, 1140.000000)">
                <g id="Group-3" transform="translate(0.000000, 11.984200)">
                    <mask id="mask-2" fill="white">
                        <use xlink:href="#path-1"></use>
                    </mask>
                    <g id="Clip-2"></g>
                    <path d="M48.3043,25.7867 C48.3043,28.3537 44.8233,30.5107 44.2143,32.8467 C43.5703,35.3207 42.5943,37.2277 41.3733,39.3197 C40.0893,41.5207 38.1253,42.4017 36.3263,44.0377 C34.4583,45.7367 33.3723,47.3817 31.0883,48.3117 C28.8123,49.2387 26.9803,50.2717 24.4313,50.2717 C21.8813,50.2717 19.0893,51.5977 16.8123,50.6707 C14.5293,49.7407 12.6873,47.6227 10.8193,45.9237 C9.0203,44.2877 7.5353,42.2427 6.2513,40.0427 C5.0303,37.9497 1.7653,36.2407 1.1213,33.7667 C0.5123,31.4297 0.0003,28.3537 0.0003,25.7867 C0.0003,23.2197 4.9723,21.3067 5.5813,18.9697 C6.2263,16.4957 6.0563,14.2227 7.2783,12.1307 C8.5623,9.9297 8.7673,7.0067 10.5663,5.3707 C12.4343,3.6717 14.5693,1.9297 16.8523,0.9997 C19.1293,0.0727 21.8813,2.3827 24.4313,2.3827 C26.9813,2.3827 28.9383,2.0257 31.2153,2.9527 C33.4983,3.8827 35.5233,4.6667 37.3913,6.3657 C39.1893,8.0017 43.0573,8.3207 44.3413,10.5207 C45.5633,12.6127 42.8913,16.4287 43.5363,18.9027 C44.1453,21.2397 48.3043,23.2197 48.3043,25.7867" id="Fill-1" fill="#310026" opacity="0.25" mask="url(#mask-2)"></path>
                </g>
                <g id="Group-9" transform="translate(3.000000, 0.984200)">
                    <g id="Group-6">
                        <mask id="mask-4" fill="white">
                            <use xlink:href="#path-3"></use>
                        </mask>
                        <g id="Clip-5"></g>
                        <path d="M43.2072,20.9725 C43.2072,23.7465 40.7882,25.4175 39.5972,27.8025 C38.4092,30.1825 37.3852,31.7835 35.2722,33.5435 C33.2562,35.2225 32.1252,38.0635 29.5012,38.9705 C27.0402,39.8215 24.3612,38.7035 21.5592,38.7035 C18.7572,38.7035 16.7612,37.8435 14.3002,36.9925 C11.6762,36.0845 9.8542,35.2305 7.8382,33.5505 C5.7262,31.7915 4.3872,30.3435 3.1982,27.9625 C2.0082,25.5785 0.9592,23.7465 0.9592,20.9725 C0.9592,18.1985 0.2002,15.4635 1.3912,13.0795 C2.5802,10.6985 4.9922,9.2725 7.1052,7.5125 C9.1212,5.8335 10.4832,2.4085 13.1072,1.5015 C15.5682,0.6505 18.7572,0.0155 21.5592,0.0155 C24.3612,0.0155 26.6822,3.1605 29.1432,4.0115 C31.7672,4.9185 33.7082,6.1815 35.7232,7.8615 C37.8362,9.6205 38.4762,11.7295 39.6652,14.1095 C40.8552,16.4935 43.2072,18.1985 43.2072,20.9725" id="Fill-4" fill="#3C840D" mask="url(#mask-4)"></path>
                    </g>
                    <path d="M38.4006,17.3516 C38.4006,19.6056 37.5016,21.3496 36.5346,23.2866 C35.5686,25.2216 35.0336,27.4206 33.3166,28.8496 C31.6786,30.2146 30.0426,32.2596 27.9116,32.9966 C25.9116,33.6876 23.3816,31.9636 21.1046,31.9636 C18.8286,31.9636 16.2726,33.7616 14.2726,33.0696 C12.1406,32.3326 9.6136,31.3136 7.9756,29.9496 C6.2596,28.5196 4.8226,26.1286 3.8576,24.1946 C2.8896,22.2566 3.5156,19.6056 3.5156,17.3516 C3.5156,15.0976 5.4806,13.7396 6.4486,11.8026 C7.4136,9.8676 8.2456,8.5676 9.9626,7.1376 C11.6006,5.7736 12.5196,3.4656 14.6516,2.7286 C16.6506,2.0366 18.8286,2.9456 21.1046,2.9456 C23.3816,2.9456 25.0026,3.6436 27.0026,4.3356 C29.1346,5.0726 30.6146,5.7666 32.2526,7.1316 C33.9696,8.5606 35.0576,9.7376 36.0226,11.6716 C36.9896,13.6096 38.4006,15.0976 38.4006,17.3516" id="Fill-7" fill="#55A521"></path>
                </g>
            </g>
        </g>
    </g>
</svg>