<?xml version="1.0" encoding="UTF-8"?>
<svg width="118px" height="116px" viewBox="0 0 118 116" version="1.1" xmlns="http://www.w3.org/2000/svg" xmlns:xlink="http://www.w3.org/1999/xlink">
    <!-- Generator: Sketch 45.1 (43504) - http://www.bohemiancoding.com/sketch -->
    <title>Page 1</title>
    <desc>Created with Sketch.</desc>
    <defs>
        <polygon id="path-1" points="0 52.1747137 0 104 117.123 104 117.123 52.1747137 117.123 0.349427499 0 0.349427499"></polygon>
    </defs>
    <g id="Marketing-site" stroke="none" stroke-width="1" fill="none" fill-rule="evenodd">
        <g id="Desktop" transform="translate(-292.000000, -1129.000000)">
            <g id="Page-1" transform="translate(-9.000000, 1098.000000)">
                <g transform="translate(301.000000, 30.000000)">
                    <g id="Group-3" transform="translate(0.000000, 12.221000)">
                        <mask id="mask-2" fill="white">
                            <use xlink:href="#path-1"></use>
                        </mask>
                        <g id="Clip-2"></g>
                        <path d="M0,49.8145 C0,40.7805 6.423,33.9835 10.938,26.4495 C14.662,20.2345 19.285,15.6625 25.308,11.2505 C30.435,7.4935 36.084,6.7705 42.407,4.7945 C48.1,3.0155 53.536,0.4765 59.866,0.4765 C66.079,0.4765 71.841,-0.1335 77.444,1.3195 C83.722,2.9485 90.21,1.6585 95.324,4.8825 C101.447,8.7415 106.225,15.2495 110.019,21.0145 C114.624,28.0135 117.123,36.4295 117.123,45.5595 C117.123,52.8335 115.742,60.1625 112.736,67.1615 C110.182,73.1095 108.415,82.9405 104.124,87.9685 C100.348,92.3925 94.276,90.2575 89.446,93.4865 C85.022,96.4445 80.906,100.4035 75.817,101.9955 C71.055,103.4855 65.112,102.5275 59.945,102.5275 C53.556,102.5275 47.098,105.2455 41.36,103.2965 C35.018,101.1425 30.671,92.4485 25.539,88.4235 C19.567,83.7395 14.613,80.0085 10.922,73.5765 C6.448,65.7805 0,58.8035 0,49.8145" id="Fill-1" fill="#310026" opacity="0.25" mask="url(#mask-2)"></path>
                    </g>
                    <g id="Group-8" transform="translate(10.000000, 0.221000)">
                        <path d="M0.8457,43.671 C0.8457,36.962 6.4487,31.913 10.3877,26.318 C13.6367,21.702 17.6687,18.307 22.9227,15.03 C27.3957,12.24 32.3237,11.703 37.8397,10.235 C42.8057,8.914 47.5477,7.029 53.0697,7.029 C58.4897,7.029 63.5167,6.576 68.4037,7.655 C73.8807,8.864 79.5407,7.906 84.0017,10.3 C89.3427,13.167 93.5107,18 96.8207,22.282 C100.8377,27.48 103.0177,33.73 103.0177,40.511 C103.0177,45.913 101.8137,51.356 99.1917,56.554 C96.9627,60.972 95.4217,68.273 91.6777,72.007 C88.3837,75.293 83.0867,73.707 78.8737,76.106 C75.0147,78.302 71.4247,81.243 66.9847,82.425 C62.8307,83.532 57.6467,82.82 53.1387,82.82 C47.5657,82.82 41.9317,84.838 36.9267,83.391 C31.3937,81.791 27.6007,75.334 23.1247,72.345 C17.9147,68.867 13.5937,66.095 10.3737,61.319 C6.4707,55.529 0.8457,50.347 0.8457,43.671" id="Fill-4" fill="#3C840D"></path>
                        <path d="M12.6753,40.3743 C12.6753,32.9283 13.8063,26.2043 17.1993,20.0663 C20.5993,13.9163 24.0363,6.5433 30.8583,3.1303 C36.6053,0.2553 44.4753,2.4303 52.6603,2.4303 C60.6233,2.4303 68.6043,-0.6547 74.7143,1.6093 C82.0903,4.3423 88.3433,9.9593 92.4393,15.3403 C96.7083,20.9493 97.3323,28.7283 97.3323,36.4243 C97.3323,44.0873 97.5003,52.2813 93.4043,57.8613 C89.4313,63.2723 81.8113,66.2083 74.4993,68.9393 C68.4973,71.1823 61.4303,74.6623 53.4873,74.6623 C45.8593,74.6623 39.7163,69.8443 34.1153,68.2063 C26.7833,66.0623 20.9803,63.9973 17.2443,59.0743 C13.5083,54.1523 12.6753,48.0423 12.6753,40.3743" id="Fill-6" fill="#55A521"></path>
                    </g>
                </g>
            </g>
        </g>
    </g>
</svg>