<?xml version="1.0" encoding="UTF-8"?>
<svg width="22px" height="28px" viewBox="0 0 22 28" version="1.1" xmlns="http://www.w3.org/2000/svg" xmlns:xlink="http://www.w3.org/1999/xlink">
    <!-- Generator: Sketch 45.1 (43504) - http://www.bohemiancoding.com/sketch -->
    <title>Page 1</title>
    <desc>Created with Sketch.</desc>
    <defs>
        <polygon id="path-1" points="21.968 0.7714 21.968 24 0.0004 24 0.0004 0.7714"></polygon>
    </defs>
    <g id="Marketing-site" stroke="none" stroke-width="1" fill="none" fill-rule="evenodd">
        <g id="Desktop" transform="translate(-76.000000, -1453.000000)">
            <g id="Page-1" transform="translate(76.000000, 1452.000000)">
                <g id="Group-3" transform="translate(0.000000, 5.015800)">
                    <mask id="mask-2" fill="white">
                        <use xlink:href="#path-1"></use>
                    </mask>
                    <g id="Clip-2"></g>
                    <path d="M21.9684,12.9294 C21.9684,16.0944 19.4814,18.5744 17.5864,20.6854 C15.6004,22.8984 13.2514,24.0004 10.1654,24.0004 C7.0794,24.0004 5.1294,22.5404 3.1434,20.3274 C1.2484,18.2164 0.0004,16.0944 0.0004,12.9294 C0.0004,9.7644 0.7504,7.1944 2.6444,5.0834 C4.6304,2.8714 7.0794,0.7714 10.1654,0.7714 C13.2514,0.7714 16.0764,2.5334 18.0624,4.7464 C19.9574,6.8574 21.9684,9.7644 21.9684,12.9294" id="Fill-1" fill="#310026" opacity="0.25" mask="url(#mask-2)"></path>
                </g>
                <g id="Group-8" transform="translate(0.000000, 0.015800)">
                    <path d="M20.9955,10.6418 C20.9955,13.2558 19.0675,14.7428 16.8785,16.3718 C14.9515,17.8048 13.0355,18.5748 10.2295,18.5748 C7.4225,18.5748 4.8635,18.6698 2.9365,17.2368 C0.7475,15.6078 0.1605,13.2558 0.1605,10.6418 C0.1605,8.0278 1.3685,6.5108 3.5585,4.8818 C5.4845,3.4488 7.4225,2.7038 10.2295,2.7038 C13.0355,2.7038 15.0585,3.3358 16.9845,4.7688 C19.1735,6.3968 20.9955,8.0278 20.9955,10.6418" id="Fill-4" fill="#3C840D"></path>
                    <path d="M18.605,8.9731 C18.605,11.0971 17.441,12.6491 15.663,13.9721 C14.098,15.1371 12.284,16.2501 10.003,16.2501 C7.722,16.2501 5.322,15.9261 3.756,14.7611 C1.978,13.4381 1.72,11.0961 1.72,8.9731 C1.72,6.8501 1.955,4.4771 3.733,3.1541 C5.298,1.9891 7.722,0.9841 10.003,0.9841 C12.284,0.9841 14.701,1.9981 16.267,3.1631 C18.044,4.4861 18.605,6.8501 18.605,8.9731" id="Fill-6" fill="#55A521"></path>
                </g>
            </g>
        </g>
    </g>
</svg>