<?xml version="1.0" encoding="UTF-8"?>
<svg width="159px" height="208px" viewBox="0 0 159 208" version="1.1" xmlns="http://www.w3.org/2000/svg" xmlns:xlink="http://www.w3.org/1999/xlink">
    <!-- Generator: Sketch 45.1 (43504) - http://www.bohemiancoding.com/sketch -->
    <title>Page 1</title>
    <desc>Created with Sketch.</desc>
    <defs></defs>
    <g id="Marketing-site" stroke="none" stroke-width="1" fill="none" fill-rule="evenodd">
        <g id="Desktop" transform="translate(-27.000000, -1150.000000)">
            <g id="Page-1" transform="translate(-9.000000, 1098.000000)">
                <g transform="translate(36.000000, 51.000000)">
                    <polygon id="Fill-2" fill="#DDDACA" points="40.4712 158.0264 90.7132 208.2684 158.5062 140.4744 108.2632 90.2334"></polygon>
                    <polygon id="Fill-3" fill="#D4145A" points="96.2971 202.6835 46.0551 152.4415 104.2751 94.2215 154.5171 144.4635"></polygon>
                    <polygon id="Fill-4" fill="#FFFF00" points="102.6794 196.3012 52.4374 146.0592 97.8924 100.6042 148.1344 150.8462"></polygon>
                    <polygon id="Fill-5" fill="#DDDACA" points="105.0728 193.9079 54.8308 143.6659 95.4998 102.9979 145.7408 153.2399"></polygon>
                    <g id="Group-50" transform="translate(75.000000, 128.268000)">
                        <path d="M11.7839,25.5083 L3.4459,18.2443 C2.6049,17.5113 2.6049,16.2053 3.4459,15.4723 L11.7839,8.2083 C12.9729,7.1723 14.8289,8.0173 14.8289,9.5943 L14.8289,24.1223 C14.8289,25.6993 12.9729,26.5443 11.7839,25.5083" id="Fill-6" fill="#4A90E2"></path>
                        <polyline id="Stroke-8" stroke="#B78858" stroke-width="3" stroke-linecap="round" stroke-linejoin="round" points="11.9561 22.9664 7.6911 26.0054 4.6301 22.4524"></polyline>
                        <path d="M42.0215,41.0583 L40.6255,41.9133" id="Stroke-10" stroke="#FFFFFF" stroke-width="3" stroke-linecap="round" stroke-linejoin="round"></path>
                        <path d="M12.2043,13.5946 L4.6303,11.1696" id="Stroke-12" stroke="#B78858" stroke-width="3" stroke-linecap="round" stroke-linejoin="round"></path>
                        <path d="M43.2723,21.3024 C44.0423,21.3994 47.7913,22.5374 47.6943,23.3074 L44.1583,39.1594 C44.0613,39.9294 43.0153,40.4314 42.2453,40.3344 C41.4753,40.2364 40.7593,39.5124 40.8563,38.7424 L41.0073,21.7244 C41.1043,20.9544 42.5023,21.2054 43.2723,21.3024" id="Fill-14" fill="#3D87C4"></path>
                        <path d="M44.9089,35.0608 L39.7429,28.9428 L45.8879,23.8258 C46.4759,23.3258 45.4919,20.8728 45.4919,20.0408 C45.4919,18.5348 41.2709,19.3148 39.7659,19.3148 C38.6879,19.3148 37.7639,19.9458 37.3219,20.8548 C36.5449,21.9008 35.2449,24.9308 35.0789,25.4108 L34.1649,27.9668 C33.9689,28.5328 34.1529,30.1598 34.6229,30.5308 L43.1689,37.2678 C43.7779,37.7488 44.6609,37.6438 45.1419,37.0348 C45.6229,36.4248 45.5179,35.5418 44.9089,35.0608" id="Fill-16" fill="#4A90E2"></path>
                        <path d="M45.2625,38.5578 L44.2025,39.8048" id="Stroke-18" stroke="#FFFFFF" stroke-width="3" stroke-linecap="round" stroke-linejoin="round"></path>
                        <path d="M40.8851,5.657 L43.1551,5.378 C44.2631,5.378 45.1621,6.118 45.1621,7.031 L47.8951,22.172 C47.8951,23.086 46.9961,23.826 45.8881,23.826 L38.1831,22.035 C37.0741,22.035 36.1751,21.295 36.1751,20.382 L38.8781,7.311 C38.8781,6.397 39.7761,5.657 40.8851,5.657" id="Fill-20" fill="#F9FF1A"></path>
                        <path d="M35.3018,18.1462 C35.0738,18.1462 34.8448,18.0942 34.6328,17.9882 L30.4358,15.8962 C29.6948,15.5262 29.3928,14.6262 29.7618,13.8842 C30.1318,13.1442 31.0318,12.8412 31.7738,13.2112 L35.0528,14.8462 L38.5268,10.6882 C39.1388,10.1322 41.0858,10.1752 41.6458,10.7892 C42.2018,11.4012 43.1568,15.3502 42.5438,15.9072 L36.3108,17.7562 C36.0288,18.0132 35.6668,18.1462 35.3018,18.1462" id="Fill-22" fill="#C69C6D"></path>
                        <path d="M30.506,8.8617 C28.76,10.6077 25.929,10.6077 24.182,8.8617 C22.436,7.1157 22.436,4.2847 24.182,2.5377 C25.929,0.7917 28.76,0.7917 30.506,2.5377 C32.252,4.2847 32.252,7.1157 30.506,8.8617" id="Fill-24" fill="#FFFFFF"></path>
                        <path d="M13.7597,12.1199 C16.3767,12.1199 18.4987,14.2419 18.4987,16.8589 C18.4987,19.4759 16.3767,21.5969 13.7597,21.5969 C11.1427,21.5969 9.0207,19.4759 9.0207,16.8589 C9.0207,14.2419 11.1427,12.1199 13.7597,12.1199" id="Fill-26" fill="#FFFFFF"></path>
                        <path d="M42.3414,8.032 C40.9194,9.454 38.6124,9.454 37.1904,8.032 C35.7674,6.61 35.7674,4.303 37.1904,2.881 C38.6124,1.458 40.9194,1.458 42.3414,2.881 C43.7634,4.303 43.7634,6.61 42.3414,8.032" id="Fill-28" fill="#C69C6D"></path>
                        <path d="M39.38,5.4938 C38.727,4.7318 35.562,1.7398 38.768,0.3468 C41.974,-1.0452 47.142,2.3168 46.803,7.6458 C46.463,12.9748 47.216,14.6118 48.281,16.7208 C50.103,20.3308 44.432,23.1048 42.211,17.5888 C39.989,12.0728 40.847,7.2068 39.38,5.4938" id="Fill-30" fill="#572F4F"></path>
                        <path d="M5,21.6741 L5,11.6741" id="Stroke-32" stroke="#D4145A" stroke-width="6" stroke-linecap="round"></path>
                        <path d="M6.2001,12.3455 C8.6921,12.3455 10.7131,14.3665 10.7131,16.8585 C10.7131,19.3505 8.6921,21.3715 6.2001,21.3715 C3.7081,21.3715 1.2251,23.7785 0.5801,21.3715 C-0.6309,16.8585 3.7081,12.3455 6.2001,12.3455" id="Fill-34" fill="#310026"></path>
                        <path d="M15.1673,19.1149 C15.9443,19.1149 16.5753,18.1049 16.5753,16.8589 C16.5753,15.6119 15.9443,14.6019 15.1673,14.6019 C14.3903,14.6019 13.7593,15.6119 13.7593,16.8589 C13.7593,18.1049 14.3903,19.1149 15.1673,19.1149" id="Fill-36" fill="#3C840D"></path>
                        <polygon id="Fill-38" fill="#D4145A" points="15.4248 15.8336 13.9948 18.5236 11.3048 17.0936 12.7348 14.4036"></polygon>
                        <polygon id="Fill-40" fill="#D4145A" points="26.108 9.17 25.217 6.256 28.131 5.366 29.022 8.279"></polygon>
                        <path d="M20.8228,52.5706 L13.2208,48.2066 C11.7758,47.3766 11.2768,45.5326 12.1068,44.0876 L13.8768,41.0036 C14.7058,39.5586 16.5508,39.0596 17.9958,39.8896 L25.5978,44.2536 C27.0428,45.0836 27.5418,46.9276 26.7118,48.3726 L24.9418,51.4556 C24.1128,52.9016 22.2678,53.4006 20.8228,52.5706" id="Fill-42" fill="#A67C52"></path>
                        <path d="M27.37,38.5169 C26.517,39.3699 24.534,38.7719 22.943,37.1809 C21.351,35.5889 20.753,33.6069 21.607,32.7539 C22.46,31.8999 24.442,32.4979 26.034,34.0899 C27.625,35.6809 28.223,37.6639 27.37,38.5169" id="Fill-44" fill="#93278F"></path>
                        <path d="M24.9805,31.17 C24.1275,32.023 24.5385,33.819 22.9465,32.227 C21.3555,30.636 20.7575,28.654 21.6105,27.8 C22.4645,26.947 24.4465,27.545 26.0375,29.136 C27.6295,30.728 25.8335,30.317 24.9805,31.17" id="Fill-46" fill="#39B54A"></path>
                        <polygon id="Fill-48" fill="#FF1D25" points="29.2824 36.8228 27.0774 31.4298 32.4714 29.2248 34.6754 34.6178"></polygon>
                    </g>
                    <path d="M0.2972,75.5791 C0.2972,64.1441 8.4272,55.5381 14.1432,46.0011 C18.8582,38.1341 24.7092,32.3461 32.3332,26.7611 C38.8242,22.0061 45.9752,21.0901 53.9802,18.5891 C61.1862,16.3371 68.0672,13.1231 76.0802,13.1231 C83.9462,13.1231 91.2402,12.3511 98.3322,14.1901 C106.2802,16.2511 114.4932,14.6181 120.9672,18.7001 C128.7172,23.5861 134.7652,31.8231 139.5682,39.1211 C145.3982,47.9821 148.5612,58.6361 148.5612,70.1931 C148.5612,79.4001 146.8142,88.6781 143.0082,97.5381 C139.7742,105.0681 137.5382,117.5131 132.1052,123.8781 C127.3262,129.4781 119.6392,126.7751 113.5252,130.8631 C107.9252,134.6071 102.7152,139.6191 96.2722,141.6351 C90.2442,143.5201 82.7222,142.3081 76.1802,142.3081 C68.0932,142.3081 59.9182,145.7481 52.6542,143.2811 C44.6252,140.5541 39.1222,129.5481 32.6272,124.4541 C25.0662,118.5241 18.7952,113.8011 14.1232,105.6601 C8.4592,95.7901 0.2972,86.9581 0.2972,75.5791" id="Fill-51" fill="#310026" opacity="0.257982337"></path>
                    <g id="Group-57" transform="translate(14.000000, 0.268000)">
                        <path d="M0.0266,52.3435 C0.0266,43.8505 7.1186,37.4595 12.1056,30.3765 C16.2186,24.5335 21.3226,20.2355 27.9736,16.0875 C33.6356,12.5555 39.8736,11.8755 46.8566,10.0175 C53.1426,8.3455 59.1466,5.9585 66.1356,5.9585 C72.9976,5.9585 79.3606,5.3845 85.5476,6.7505 C92.4806,8.2815 99.6456,7.0695 105.2926,10.1005 C112.0536,13.7285 117.3296,19.8465 121.5196,25.2675 C126.6056,31.8475 129.3646,39.7595 129.3646,48.3435 C129.3646,55.1815 127.8406,62.0725 124.5206,68.6515 C121.6996,74.2445 119.7486,83.4865 115.0096,88.2145 C110.8396,92.3735 104.1346,90.3665 98.8016,93.4015 C93.9156,96.1825 89.3716,99.9045 83.7506,101.4015 C78.4916,102.8025 71.9296,101.9015 66.2236,101.9015 C59.1686,101.9015 52.0366,104.4565 45.7006,102.6245 C38.6966,100.5995 33.8956,92.4255 28.2296,88.6425 C21.6336,84.2385 16.1636,80.7305 12.0876,74.6835 C7.1466,67.3535 0.0266,60.7945 0.0266,52.3435" id="Fill-53" fill="#3C840D"></path>
                        <path d="M10.8507,48.1702 C10.8507,38.7442 16.9067,30.4942 21.2007,22.7252 C25.5047,14.9382 31.3657,9.3072 40.0017,4.9862 C47.2767,1.3472 55.2567,0.7322 65.6177,0.7322 C75.6977,0.7322 83.9877,1.1262 91.7227,3.9922 C101.0587,7.4522 108.2427,11.6062 113.4267,18.4182 C118.8317,25.5192 123.9487,33.4272 123.9487,43.1702 C123.9487,52.8702 120.1207,61.5842 114.9357,68.6482 C109.9077,75.4992 102.4827,80.7742 93.2267,84.2322 C85.6287,87.0702 76.7197,91.6852 66.6647,91.6852 C57.0077,91.6852 47.7177,90.6542 40.6267,88.5802 C31.3457,85.8662 27.4937,76.5722 22.7637,70.3402 C18.0347,64.1092 10.8507,57.8772 10.8507,48.1702" id="Fill-55" fill="#55A521"></path>
                    </g>
                </g>
            </g>
        </g>
    </g>
</svg>