<?xml version="1.0" encoding="UTF-8"?>
<svg width="249px" height="169px" viewBox="0 0 249 169" version="1.1" xmlns="http://www.w3.org/2000/svg" xmlns:xlink="http://www.w3.org/1999/xlink">
    <!-- Generator: Sketch 45.1 (43504) - http://www.bohemiancoding.com/sketch -->
    <title>Group 4</title>
    <desc>Created with Sketch.</desc>
    <defs>
        <polygon id="path-1" points="3.82245788 5 0.0524305464 5 0.0524305464 0.489988293 3.82245788 0.489988293"></polygon>
    </defs>
    <g id="Marketing-site" stroke="none" stroke-width="1" fill="none" fill-rule="evenodd">
        <g id="Desktop" transform="translate(-490.000000, -1332.000000)">
            <g id="Page-1" transform="translate(-9.000000, 1098.000000)">
                <g id="Group-4" transform="translate(494.000000, 241.000000)">
                    <g id="Page-1" transform="translate(27.000000, 0.000000)">
                        <g id="Group-10" transform="translate(0.000000, 0.903000)">
                            <path d="M77.1802,12.985 C107.0792,3.543 192.9872,-12.536 213.8072,20.131 C234.6282,52.798 165.6032,81.382 167.9362,134.467 C170.2702,187.551 183.1262,267.178 106.5932,248.803 C30.0612,230.427 -9.0138,177.513 2.4782,126.385 C13.9712,75.257 31.9242,27.277 77.1802,12.985" id="Fill-1" fill="#1A84D3"></path>
                            <path d="M77.1802,12.985 C107.0792,3.543 192.9872,-12.536 213.8072,20.131 C234.6282,52.798 165.6032,81.382 167.9362,134.467 C170.2702,187.551 183.1262,267.178 106.5932,248.803 C30.0612,230.427 -9.0138,177.513 2.4782,126.385 C13.9712,75.257 31.9242,27.277 77.1802,12.985 Z" id="Stroke-3" stroke="#1677B2" stroke-width="17"></path>
                            <g id="Group-9" transform="translate(46.000000, 54.000000)">
                                <path d="M40.5584,7.1876 C56.0594,1.7706 100.5954,-7.4534 111.3894,11.2866 C122.1834,30.0276 86.3994,46.4246 87.6084,76.8776 C88.8184,107.3306 95.4834,153.0096 55.8074,142.4686 C16.1304,131.9276 -4.1266,101.5716 1.8314,72.2416 C7.7894,42.9116 17.0964,15.3866 40.5584,7.1876" id="Fill-5" fill="#34A0E2"></path>
                                <path d="M40.5584,7.1876 C56.0594,1.7706 100.5954,-7.4534 111.3894,11.2866 C122.1834,30.0276 86.3994,46.4246 87.6084,76.8776 C88.8184,107.3306 95.4834,153.0096 55.8074,142.4686 C16.1304,131.9276 -4.1266,101.5716 1.8314,72.2416 C7.7894,42.9116 17.0964,15.3866 40.5584,7.1876 Z" id="Stroke-7" stroke="#2393D8" stroke-width="17"></path>
                            </g>
                        </g>
                    </g>
                    <g id="Page-1" transform="translate(54.500000, 103.000000) rotate(-10.000000) translate(-54.500000, -103.000000) translate(6.000000, 67.000000)">
                        <g id="Group-38" transform="translate(74.000000, 29.908600)">
                            <path d="M22.6404,37.7178 C22.1604,39.3318 20.1474,40.1558 20.1474,40.1558 C20.1474,40.1558 18.9144,38.3648 19.3944,36.7518 C19.8744,35.1378 20.6284,35.2638 21.5244,35.5308 C22.4214,35.7968 23.1204,36.1038 22.6404,37.7178" id="Fill-1" fill="#085100"></path>
                            <polygon id="Fill-3" fill="#FFCA33" points="21.0862 34.5206 22.1152 33.5466 22.4442 34.9246"></polygon>
                            <path d="M22.7379,35.9063 C22.5379,36.5783 21.8309,36.9613 21.1579,36.7613 C20.4859,36.5613 20.1029,35.8543 20.3029,35.1813 C20.5029,34.5093 21.2109,34.1263 21.8829,34.3263 C22.5549,34.5263 22.9379,35.2343 22.7379,35.9063" id="Fill-5" fill="#0D8700"></path>
                            <path d="M3.5403,23.208 C2.6973,24.665 0.5483,24.999 0.5483,24.999 C0.5483,24.999 -0.2347,22.97 0.6083,21.512 C1.4513,20.055 2.1553,20.353 2.9643,20.821 C3.7743,21.289 4.3833,21.751 3.5403,23.208" id="Fill-7" fill="#085100"></path>
                            <polygon id="Fill-9" fill="#FFCA33" points="2.7735 19.7367 4.0005 19.0297 3.9995 20.4457"></polygon>
                            <path d="M4.057,21.469 C3.706,22.076 2.929,22.284 2.322,21.933 C1.714,21.581 1.507,20.804 1.858,20.197 C2.209,19.59 2.986,19.382 3.593,19.734 C4.201,20.085 4.408,20.862 4.057,21.469" id="Fill-11" fill="#0D8700"></path>
                            <path d="M13.1554,27.6739 C13.1554,29.3569 11.4624,30.7219 11.4624,30.7219 C11.4624,30.7219 9.7684,29.3569 9.7684,27.6739 C9.7684,25.9909 10.5264,25.8959 11.4624,25.8959 C12.3974,25.8959 13.1554,25.9909 13.1554,27.6739" id="Fill-13" fill="#085100"></path>
                            <polygon id="Fill-15" fill="#FFCA33" points="10.7537 25.0529 11.4617 23.8259 12.1707 25.0529"></polygon>
                            <path d="M12.7321,25.9099 C12.7321,26.6109 12.1631,27.1799 11.4621,27.1799 C10.7601,27.1799 10.1921,26.6109 10.1921,25.9099 C10.1921,25.2089 10.7601,24.6399 11.4621,24.6399 C12.1631,24.6399 12.7321,25.2089 12.7321,25.9099" id="Fill-17" fill="#0D8700"></path>
                            <g id="Group-21" transform="translate(4.000000, 37.000000)">
                                <mask id="mask-2" fill="white">
                                    <use xlink:href="#path-1"></use>
                                </mask>
                                <g id="Clip-20"></g>
                                <path d="M3.3739,3.3181 C2.4789,4.7441 0.3189,5.0001 0.3189,5.0001 C0.3189,5.0001 -0.3901,2.9441 0.5049,1.5181 C1.3999,0.0921 2.0919,0.4151 2.8849,0.9121 C3.6769,1.4091 4.2689,1.8921 3.3739,3.3181" id="Fill-19" fill="#085100" mask="url(#mask-2)"></path>
                            </g>
                            <polygon id="Fill-22" fill="#FFCA33" points="6.7326 36.8214 7.9846 36.1584 7.9326 37.5744"></polygon>
                            <path d="M7.9529,38.5989 C7.5799,39.1929 6.7959,39.3729 6.2019,38.9999 C5.6079,38.6269 5.4289,37.8429 5.8009,37.2489 C6.1739,36.6549 6.9579,36.4749 7.5519,36.8479 C8.1459,37.2209 8.3259,38.0049 7.9529,38.5989" id="Fill-24" fill="#0D8700"></path>
                            <path d="M20.9809,22.6277 C22.1589,23.8297 21.9049,25.9897 21.9049,25.9897 C21.9049,25.9897 19.7399,26.2007 18.5619,24.9977 C17.3839,23.7957 17.8589,23.1977 18.5269,22.5427 C19.1949,21.8887 19.8029,21.4257 20.9809,22.6277" id="Fill-26" fill="#085100"></path>
                            <polygon id="Fill-28" fill="#FFCA33" points="17.431 22.4366 17.078 21.0646 18.443 21.4456"></polygon>
                            <path d="M19.4439,21.664 C19.9349,22.165 19.9269,22.969 19.4259,23.46 C18.9249,23.951 18.1209,23.943 17.6299,23.442 C17.1389,22.941 17.1469,22.137 17.6479,21.646 C18.1489,21.155 18.9529,21.163 19.4439,21.664" id="Fill-30" fill="#0D8700"></path>
                            <path d="M11.5073,3.8985 C14.1733,7.0205 12.9363,14.0285 12.9363,14.0285 C12.9363,14.0285 5.3763,13.9755 2.7103,10.8545 C0.0443,7.7325 2.4153,5.4475 4.2923,4.0795 C6.1693,2.7105 8.8413,0.7765 11.5073,3.8985" id="Fill-32" fill="#17750A"></path>
                            <polygon id="Fill-34" fill="#FFCA33" points="1.5886 3.5527 1.1066 0.2417 4.2156 1.4797"></polygon>
                            <path d="M6.5109,2.2471 C7.5369,3.5481 7.3149,5.4341 6.0139,6.4601 C4.7139,7.4871 2.8269,7.2641 1.8009,5.9641 C0.7739,4.6631 0.9969,2.7771 2.2979,1.7501 C3.5979,0.7241 5.4849,0.9461 6.5109,2.2471" id="Fill-36" fill="#5CBF4B"></path>
                        </g>
                        <polyline id="Stroke-39" stroke="#F9EFB7" stroke-width="3" stroke-linecap="round" stroke-linejoin="round" points="17.8412 1.3038 21.8012 0.7048 24.5012 7.5358"></polyline>
                        <path d="M15.0185,16.6521 L8.6725,15.3271" id="Stroke-41" stroke="#F9EFB7" stroke-width="3" stroke-linecap="round" stroke-linejoin="round"></path>
                        <g id="Group-62" transform="translate(0.000000, 0.908600)">
                            <path d="M16.6756,0.5914 L9.1626,12.4054" id="Stroke-42" stroke="#572F4F" stroke-width="5" stroke-linecap="round" stroke-linejoin="round"></path>
                            <path d="M11.4472,11.4683 C8.9952,9.9093 8.2722,6.6583 9.8312,4.2063 C11.3902,1.7553 14.6412,1.0313 17.0932,2.5903 C19.5442,4.1493 20.2682,7.4003 18.7092,9.8523 C17.1502,12.3033 13.8992,13.0273 11.4472,11.4683" id="Fill-44" fill="#FFFF00"></path>
                            <path d="M12.0185,32.7435 L8.6725,32.4185" id="Stroke-46" stroke="#F9EFB7" stroke-width="2" stroke-linecap="round" stroke-linejoin="round"></path>
                            <path d="M14.0185,19.7435 L10.6725,22.4185" id="Stroke-48" stroke="#F9EFB7" stroke-width="2" stroke-linecap="round" stroke-linejoin="round"></path>
                            <path d="M9.5314,23.0274 L7.5614,30.3984" id="Stroke-50" stroke="#D4145A" stroke-width="4" stroke-linecap="round" stroke-linejoin="round"></path>
                            <path d="M7.319,30.5867 C5.354,30.0617 4.187,28.0427 4.713,26.0787 C5.238,24.1137 7.256,22.9467 9.221,23.4717 C11.186,23.9977 12.353,26.0157 11.827,27.9807 C11.302,29.9447 9.284,31.1117 7.319,30.5867" id="Fill-52" fill="#FFFF00"></path>
                            <path d="M40.5066,20.0794 C40.5066,21.0014 39.7596,21.7484 38.8376,21.7484 C37.9156,21.7484 37.1676,21.0014 37.1676,20.0794 C37.1676,19.1574 37.9156,18.4104 38.8376,18.4104 C39.7596,18.4104 40.5066,19.1574 40.5066,20.0794" id="Fill-54" fill="#A67C52"></path>
                            <path d="M30.8374,23.0274 C30.8374,23.9494 30.0904,24.6964 29.1684,24.6964 C28.2464,24.6964 27.4984,23.9494 27.4984,23.0274 C27.4984,22.1054 28.2464,21.3584 29.1684,21.3584 C30.0904,21.3584 30.8374,22.1054 30.8374,23.0274" id="Fill-56" fill="#A67C52"></path>
                            <polygon id="Fill-58" fill="#A67C52" points="27.534 10.2611 22.414 17.6631 17.912 14.5491 23.032 7.1471"></polygon>
                            <path d="M6.25,26.7 C6.25,26.7 4.851,28.825 3.125,28.825 C1.399,28.825 0,26.7 0,26.7 C0,26.7 1.399,25.575 3.125,25.575 C4.851,25.575 6.25,26.7 6.25,26.7" id="Fill-60" fill="#FFFF00"></path>
                        </g>
                    </g>
                </g>
            </g>
        </g>
    </g>
</svg>