<?xml version="1.0" encoding="UTF-8"?>
<svg width="41px" height="30px" viewBox="0 0 41 30" version="1.1" xmlns="http://www.w3.org/2000/svg" xmlns:xlink="http://www.w3.org/1999/xlink">
    <!-- Generator: Sketch 44.1 (41455) - http://www.bohemiancoding.com/sketch -->
    <title>Group 6</title>
    <desc>Created with Sketch.</desc>
    <defs></defs>
    <g id="Marketing-site" stroke="none" stroke-width="1" fill="none" fill-rule="evenodd">
        <g id="Desktop" transform="translate(-1036.000000, -377.000000)">
            <g id="Group-6" transform="translate(1036.000000, 378.000000)">
                <g id="Sketch_logo_frame" transform="translate(7.000000, 2.000000)" fill-rule="nonzero">
                    <g id="Group">
                        <g id="Page-1">
                            <g id="Sketch-Flat-Logo">
                                <g id="Group">
                                    <g id="Base" fill="#FFAE00">
                                        <polygon id="Polygon" transform="translate(14.448342, 13.128409) rotate(-180.000000) translate(-14.448342, -13.128409) " points="14.448342 1.42108547e-14 28.896684 16.8584048 22.6376857 25.3757174 14.448342 26.2568187 6.25899836 25.3757174 2.84217094e-14 16.8584048"></polygon>
                                    </g>
                                    <g id="Bottom-Back" transform="translate(0.000000, 9.398414)" fill="#EC6C00">
                                        <polygon id="Polygon" transform="translate(14.448342, 8.429202) rotate(-180.000000) translate(-14.448342, -8.429202) " points="14.448342 3.55271368e-14 28.896684 16.8584048 0 16.8584048"></polygon>
                                    </g>
                                    <g id="Bottom-Mid" transform="translate(5.849531, 9.398414)" fill="#FFAE00">
                                        <polygon id="Polygon" transform="translate(8.598811, 8.429202) rotate(-180.000000) translate(-8.598811, -8.429202) " points="8.59881083 2.13162821e-14 17.1976217 16.8584048 -7.81597009e-14 16.8584048"></polygon>
                                    </g>
                                    <g id="Top-Mid" transform="translate(5.849531, 0.000000)" fill="#FFEFB4">
                                        <polygon id="Polygon" transform="translate(8.598811, 4.699207) rotate(-180.000000) translate(-8.598811, -4.699207) " points="8.59881083 9.39841385 17.1976217 2.79754326e-13 1.42108547e-14 1.17239551e-13"></polygon>
                                    </g>
                                    <g id="Top-Side-Left" transform="translate(0.000000, 0.881101)" fill="#FFAE00">
                                        <polygon id="Polygon" transform="translate(3.129499, 4.258656) rotate(-180.000000) translate(-3.129499, -4.258656) " points="1.17239551e-13 8.51731255 3.21724215 4.22928623 6.25899836 1.53379692e-13 0.350971871 -3.55271368e-15"></polygon>
                                    </g>
                                    <g id="Top-Side-Right" transform="translate(25.396684, 5.381101) scale(-1, 1) translate(-25.396684, -5.381101) translate(21.896684, 0.881101)" fill="#FFAE00">
                                        <polygon id="Polygon" transform="translate(3.129499, 4.258656) rotate(-180.000000) translate(-3.129499, -4.258656) " points="-2.34479103e-13 8.51731255 3.21724215 4.22928623 6.25899836 1.96012256e-13 0.350971871 3.90798505e-14"></polygon>
                                    </g>
                                    <g id="Top-Left" transform="translate(5.849531, 0.000000)" fill="#FED305">
                                        <polygon id="Polygon" transform="translate(4.299405, 4.699207) rotate(-180.000000) translate(-4.299405, -4.699207) " points="8.18934365 8.51731255 8.59881083 1.0658141e-14 -1.13686838e-13 9.39841385"></polygon>
                                    </g>
                                    <g id="Top-Right" transform="translate(14.448342, 0.000000)" fill="#FED305">
                                        <polygon id="Polygon" transform="translate(4.299405, 4.699207) scale(-1, 1) rotate(-180.000000) translate(-4.299405, -4.699207) " points="8.18934365 8.51731255 8.59881083 1.03028697e-13 -4.4408921e-15 9.39841385"></polygon>
                                    </g>
                                </g>
                            </g>
                        </g>
                    </g>
                </g>
                <g id="Group-5" transform="translate(36.000000, 4.000000)" stroke="#FED305" stroke-linecap="square">
                    <path d="M2.5,0.5 L2.5,4.5" id="Line"></path>
                    <path d="M2.5,0.5 L2.5,4.5" id="Line" transform="translate(2.500000, 2.500000) rotate(-90.000000) translate(-2.500000, -2.500000) "></path>
                </g>
                <g id="Group-5-Copy-2" transform="translate(0.000000, 6.000000)" stroke="#FED305" stroke-linecap="square">
                    <path d="M2.5,0.5 L2.5,4.5" id="Line"></path>
                    <path d="M2.5,0.5 L2.5,4.5" id="Line" transform="translate(2.500000, 2.500000) rotate(-90.000000) translate(-2.500000, -2.500000) "></path>
                </g>
                <g id="Group-5-Copy-3" transform="translate(31.000000, 22.000000)" stroke="#FED305" stroke-linecap="square">
                    <path d="M1.5,0.3 L1.5,2.7" id="Line"></path>
                    <path d="M1.5,0.3 L1.5,2.7" id="Line" transform="translate(1.500000, 1.500000) rotate(-90.000000) translate(-1.500000, -1.500000) "></path>
                </g>
                <path d="M37.5,17.3 L37.5,19.7" id="Line" stroke="#FED305" stroke-linecap="square"></path>
                <path d="M37.5,17.3 L37.5,19.7" id="Line" stroke="#FED305" stroke-linecap="square" transform="translate(37.500000, 18.500000) rotate(-90.000000) translate(-37.500000, -18.500000) "></path>
                <path d="M7.5,0.3 L7.5,2.7" id="Line" stroke="#FED305" stroke-linecap="square"></path>
                <path d="M7.5,0.3 L7.5,2.7" id="Line" stroke="#FED305" stroke-linecap="square" transform="translate(7.500000, 1.500000) rotate(-90.000000) translate(-7.500000, -1.500000) "></path>
                <path d="M4.5,16.3 L4.5,18.7" id="Line" stroke="#FED305" stroke-linecap="square"></path>
                <path d="M4.5,16.3 L4.5,18.7" id="Line" stroke="#FED305" stroke-linecap="square" transform="translate(4.500000, 17.500000) rotate(-90.000000) translate(-4.500000, -17.500000) "></path>
            </g>
        </g>
    </g>
</svg>