<?xml version="1.0" encoding="UTF-8"?>
<svg width="29px" height="27px" viewBox="0 0 29 27" version="1.1" xmlns="http://www.w3.org/2000/svg" xmlns:xlink="http://www.w3.org/1999/xlink">
    <!-- Generator: Sketch 45.2 (43514) - http://www.bohemiancoding.com/sketch -->
    <title>sketch_sparkle</title>
    <desc>Created with Sketch.</desc>
    <defs></defs>
    <g id="Page-1" stroke="none" stroke-width="1" fill="none" fill-rule="evenodd">
        <g id="sketch_sparkle" fill-rule="nonzero">
            <g id="Sketch_logo_frame" transform="translate(0.000000, 0.000000)">
                <g id="Group">
                    <g id="Page-1">
                        <g id="Sketch-Flat-Logo">
                            <g id="Group">
                                <g id="Base" fill="#FFAE00">
                                    <polygon id="Polygon" transform="translate(14.448342, 13.128409) rotate(-180.000000) translate(-14.448342, -13.128409) " points="14.448342 -6.99999999e-07 28.896684 16.8584041 22.6376857 25.3757167 14.448342 26.256818 6.25899836 25.3757167 1.77635684e-15 16.8584041"></polygon>
                                </g>
                                <g id="Bottom-Back" transform="translate(0.000000, 9.398414)" fill="#EC6C00">
                                    <polygon id="Polygon" transform="translate(14.448342, 8.429202) rotate(-180.000000) translate(-14.448342, -8.429202) " points="14.448342 -8e-07 28.896684 16.858404 1.77635684e-15 16.858404"></polygon>
                                </g>
                                <g id="Bottom-Mid" transform="translate(5.849531, 9.398414)" fill="#FFAE00">
                                    <polygon id="Polygon" transform="translate(8.598811, 8.429202) rotate(-180.000000) translate(-8.598811, -8.429202) " points="8.59881113 -8e-07 17.197622 16.858404 2.99999998e-07 16.858404"></polygon>
                                </g>
                                <g id="Top-Mid" transform="translate(5.849531, 0.000000)" fill="#FFEFB4">
                                    <polygon id="Polygon" transform="translate(8.598811, 4.699207) rotate(-180.000000) translate(-8.598811, -4.699207) " points="8.59881113 9.398414 17.197622 1.50000163e-07 3e-07 1.50000001e-07"></polygon>
                                </g>
                                <g id="Top-Side-Left" transform="translate(0.000000, 0.881101)" fill="#FFAE00">
                                    <polygon id="Polygon" transform="translate(3.129499, 4.258656) rotate(-180.000000) translate(-3.129499, -4.258656) " points="-3.59999999e-07 8.517312 3.21724179 4.22928568 6.258998 -5.49999842e-07 0.350971511 -5.49999999e-07"></polygon>
                                </g>
                                <g id="Top-Side-Right" transform="translate(25.396684, 5.381101) scale(-1, 1) translate(-25.396684, -5.381101) translate(21.896684, 0.881101)" fill="#FFAE00">
                                    <polygon id="Polygon" transform="translate(3.129499, 4.258656) rotate(-180.000000) translate(-3.129499, -4.258656) " points="-3.59999999e-07 8.517312 3.21724179 4.22928568 6.258998 -5.49999842e-07 0.350971511 -5.49999999e-07"></polygon>
                                </g>
                                <g id="Top-Left" transform="translate(5.849531, 0.000000)" fill="#FED305">
                                    <polygon id="Polygon" transform="translate(4.299405, 4.699207) rotate(-180.000000) translate(-4.299405, -4.699207) " points="8.18934282 8.5173127 8.59881 1.50000001e-07 -8.29999999e-07 9.398414"></polygon>
                                </g>
                                <g id="Top-Right" transform="translate(14.448342, 0.000000)" fill="#FED305">
                                    <polygon id="Polygon" transform="translate(4.299405, 4.699207) scale(-1, 1) rotate(-180.000000) translate(-4.299405, -4.699207) " points="8.18934365 8.5173127 8.59881083 1.50000001e-07 -4.4408921e-15 9.398414"></polygon>
                                </g>
                            </g>
                        </g>
                    </g>
                </g>
            </g>
        </g>
    </g>
</svg>