<?xml version="1.0" encoding="UTF-8"?>
<svg width="56px" height="56px" viewBox="0 0 56 56" version="1.1" xmlns="http://www.w3.org/2000/svg" xmlns:xlink="http://www.w3.org/1999/xlink">
    <!-- Generator: Sketch 45.1 (43504) - http://www.bohemiancoding.com/sketch -->
    <title>Group 14</title>
    <desc>Created with Sketch.</desc>
    <defs></defs>
    <g id="Marketing-site" stroke="none" stroke-width="1" fill="none" fill-rule="evenodd">
        <g id="Desktop" transform="translate(-361.000000, -3521.000000)">
            <g id="Group-14" transform="translate(361.000000, 3521.000000)">
                <circle id="Oval-6" fill="#FFFFFF" cx="28.446082" cy="28.446082" r="27.5"></circle>
                <g id="Group-13" transform="translate(15.946082, 17.446082)">
                    <path d="M23.0821,19.8271 L2.0531,19.8271 C1.5541,19.8271 1.1331,19.4621 1.0621,18.9681 C0.8591,17.5561 0.5001,14.4991 0.5001,10.5341 C0.5001,5.0031 1.1991,1.2411 1.1991,1.2411 L23.9381,1.2411 C23.9381,1.2411 24.6181,4.8631 24.6181,10.4941 C24.6181,14.5211 24.2701,17.5611 24.0721,18.9661 C24.0031,19.4611 23.5821,19.8271 23.0821,19.8271" id="Fill-1" fill="#93C081" opacity="0.900000036"></path>
                    <path d="M1.2485,1.1282 L10.7425,13.5842 C11.7645,14.5712 13.1185,14.5662 14.1365,13.5732 L23.8695,0.7892" id="Stroke-6" stroke="#FFFFFF"></path>
                </g>
            </g>
        </g>
    </g>
</svg>