<?xml version="1.0" encoding="UTF-8"?>
<svg width="25px" height="20px" viewBox="0 0 25 20" version="1.1" xmlns="http://www.w3.org/2000/svg" xmlns:xlink="http://www.w3.org/1999/xlink">
    <!-- Generator: Sketch 45.2 (43514) - http://www.bohemiancoding.com/sketch -->
    <title>Twitter</title>
    <desc>Created with Sketch.</desc>
    <defs></defs>
    <g id="Marketing-site" stroke="none" stroke-width="1" fill="none" fill-rule="evenodd">
        <g id="Desktop" transform="translate(-628.000000, -3403.000000)" fill-rule="nonzero" fill="#FFFFFF">
            <g id="Twitter" transform="translate(628.000000, 3403.000000)">
                <path d="M24.9454545,2.35874439 C24.0272727,2.76233184 23.0454545,3.03139013 22.0181818,3.14798206 C23.0727273,2.52914798 23.8818182,1.5426009 24.2636364,0.367713004 C23.2727273,0.941704036 22.1818182,1.3632287 21.0181818,1.58744395 C20.0909091,0.609865471 18.7636364,0 17.3,0 C14.4818182,0 12.2,2.25112108 12.2,5.03139013 C12.2,5.42600897 12.2454545,5.81165919 12.3363636,6.1793722 C8.09090909,5.96412556 4.33636364,3.96412556 1.81818182,0.923766816 C1.38181818,1.66816143 1.12727273,2.52914798 1.12727273,3.4529148 C1.12727273,5.20179372 2.02727273,6.73542601 3.4,7.64125561 C2.56363636,7.61434978 1.78181818,7.39013453 1.09090909,7.01345291 C1.09090909,7.03139013 1.09090909,7.05829596 1.09090909,7.07623318 C1.09090909,9.51569507 2.84545455,11.5426009 5.18181818,12.0089686 C4.75454545,12.1255605 4.3,12.1883408 3.83636364,12.1883408 C3.50909091,12.1883408 3.19090909,12.1524664 2.87272727,12.0986547 C3.51818182,14.0986547 5.40909091,15.5515695 7.63636364,15.5964126 C5.89090909,16.941704 3.69090909,17.7488789 1.3,17.7488789 C0.890909091,17.7488789 0.481818182,17.7219731 0.0818181818,17.67713 C2.33636364,19.103139 5.01818182,19.9372197 7.9,19.9372197 C17.2818182,19.9372197 22.4090909,12.2690583 22.4090909,5.62331839 C22.4090909,5.40807175 22.4,5.1838565 22.3909091,4.96860987 C23.4,4.25112108 24.2636364,3.3632287 24.9454545,2.35874439 Z" id="Shape"></path>
            </g>
        </g>
    </g>
</svg>